# xmcd
#
# Track frame offsets:
#	150
#	22504
#	41239
#	62967
#	92326
#	113646
#	140775
#	160619
#	183778
#	209798
#	225751
#
# Disc length: 3253 seconds
#
# Revision: 0
# Processed by: cddbd v1.5.2PL0 Copyright (c) Steve Scherf et al.
# Submitted via: EasyCDDAExtractor 4.6.0.1
#
DISCID=850cb30b
DTITLE=A.G.Weinberger - Transylvania Avenue
DYEAR=1999
DGENRE=Blues
TTITLE0=1600 Transylvania Avenue
TTITLE1=Magic Song
TTITLE2=Forty Days, Forty Nights
TTITLE3=Missing Hometown Serenade
TTITLE4=Try To Get Into The Middle
TTITLE5=Willing To Do
TTITLE6=Bring a Little Smile To Me
TTITLE7=Spoonful
TTITLE8=Mother Blues
TTITLE9=Load Me Up
TTITLE10=Don't Kill The Melody In Me
EXTD=
EXTT0=
EXTT1=
EXTT2=
EXTT3=
EXTT4=
EXTT5=
EXTT6=
EXTT7=
EXTT8=
EXTT9=
EXTT10=
PLAYORDER=
